<svg width="41" height="26" viewBox="0 0 41 26" fill="none" xmlns="http://www.w3.org/2000/svg">
<path d="M36.9105 1.70007H26.7705V4.52007H36.9505L36.9105 1.70007ZM34.7705 21.1001C34.0013 21.6098 33.0929 21.8683 32.1705 21.8401C31.56 21.9037 30.9429 21.8407 30.3578 21.6548C29.7728 21.469 29.2324 21.1644 28.7705 20.7601C27.9165 19.7918 27.4719 18.5298 27.5305 17.2401H40.7705C40.8659 15.8972 40.7512 14.5476 40.4305 13.2401C40.1203 11.9961 39.5774 10.8221 38.8305 9.78008C38.0788 8.76928 37.1078 7.94191 35.9905 7.36007C34.7474 6.74716 33.3763 6.43867 31.9905 6.46007C30.6871 6.45053 29.3951 6.70215 28.1905 7.20007C27.0875 7.66506 26.0881 8.34494 25.2505 9.20008C24.4153 10.0723 23.7685 11.1071 23.3505 12.2401C22.9019 13.4632 22.6783 14.7574 22.6905 16.0601C22.6699 17.3813 22.8867 18.6955 23.3305 19.9401C23.7075 21.0671 24.3059 22.1075 25.0905 23.0001C25.9023 23.8764 26.9001 24.5598 28.0105 25.0001C29.2487 25.4718 30.5657 25.7026 31.8905 25.6801C33.7493 25.738 35.5846 25.2514 37.1705 24.2801C38.7723 23.1418 39.9256 21.4792 40.4305 19.5801H36.0105C35.7739 20.2083 35.3385 20.7421 34.7705 21.1001ZM27.9105 12.8601C28.0662 12.3614 28.3246 11.9009 28.669 11.5082C29.0135 11.1155 29.4364 10.7994 29.9105 10.5801C30.5384 10.2974 31.2222 10.1607 31.9105 10.1801C32.4077 10.1376 32.9083 10.2032 33.3778 10.3724C33.8473 10.5415 34.2746 10.8102 34.6305 11.1601C35.3101 11.9919 35.7462 12.9957 35.8905 14.0601H27.5905C27.6229 13.6536 27.6966 13.2516 27.8105 12.8601H27.9105ZM17.3305 11.9001C18.3484 11.4762 19.2329 10.7852 19.8905 9.90007C20.495 8.96008 20.7952 7.85674 20.7505 6.74007C20.7897 5.72175 20.5911 4.7083 20.1705 3.78007C19.8171 2.97591 19.2499 2.28413 18.5305 1.78007C17.7678 1.25602 16.9017 0.9014 15.9905 0.740074C14.9121 0.5139 13.8122 0.406593 12.7105 0.420074H0.770508V25.5801H12.9705C14.0839 25.5809 15.1928 25.4397 16.2705 25.1601C17.292 24.8958 18.2597 24.4559 19.1305 23.8601C19.974 23.2755 20.6608 22.4925 21.1305 21.5801C21.6503 20.5597 21.9048 19.4248 21.8705 18.2801C21.9084 16.8615 21.5105 15.4655 20.7305 14.2801C19.8917 13.0879 18.6475 12.2419 17.2305 11.9001H17.3305ZM6.31051 4.72007H11.4905C11.9664 4.71949 12.4415 4.75963 12.9105 4.84007C13.3424 4.90408 13.7572 5.05367 14.1305 5.28007C14.4912 5.4841 14.7835 5.79029 14.9705 6.16007C15.2021 6.60351 15.3125 7.10027 15.2905 7.60007C15.3278 8.03055 15.2619 8.46371 15.0985 8.86368C14.935 9.26365 14.6786 9.61892 14.3505 9.90007C13.6347 10.3921 12.7783 10.6378 11.9105 10.6001H6.31051V4.72007ZM15.9905 19.6001C15.785 20.0077 15.4743 20.3529 15.0905 20.6001C14.6911 20.8485 14.251 21.0245 13.7905 21.1201C13.2786 21.2347 12.755 21.2884 12.2305 21.2801H6.23051V14.3801H12.2305C13.2601 14.335 14.2769 14.6225 15.1305 15.2001C15.5161 15.5461 15.8149 15.9781 16.0025 16.4611C16.1901 16.9441 16.2614 17.4644 16.2105 17.9801C16.2646 18.5298 16.1892 19.0846 15.9905 19.6001V19.6001Z" fill="white"/>
</svg>
