<svg width="49" height="48" viewBox="0 0 49 48" fill="none" xmlns="http://www.w3.org/2000/svg">
<path d="M20.9112 41.0059C20.9111 40.7126 20.8466 40.4229 20.7221 40.1573C20.5976 39.8917 20.4162 39.6567 20.1908 39.469C19.9654 39.2814 19.7014 39.1456 19.4177 39.0713C19.1339 38.997 18.8373 38.986 18.5489 39.0391C15.9307 39.5196 12.625 39.5918 11.7461 37.1231C10.9797 35.2111 9.71026 33.5421 8.07229 32.2931C7.95542 32.2295 7.84404 32.1563 7.73929 32.0743C7.59594 31.6962 7.34132 31.3704 7.00902 31.1399C6.67672 30.9094 6.28235 30.7851 5.87795 30.7833H5.86819C5.33939 30.7831 4.83205 30.9924 4.45721 31.3654C4.08238 31.7384 3.87059 32.2447 3.86819 32.7735C3.86037 34.4044 5.49019 35.4493 6.15139 35.8028C6.93108 36.5862 7.5577 37.5083 7.99905 38.5216C8.72757 40.5685 10.8448 43.6739 16.9307 43.2736C16.9327 43.3439 16.9346 43.4103 16.9356 43.4708L16.9444 44.006C16.9444 44.5364 17.1551 45.0451 17.5301 45.4202C17.9052 45.7953 18.4139 46.006 18.9444 46.006C19.4748 46.006 19.9835 45.7953 20.3586 45.4202C20.7336 45.0451 20.9444 44.5364 20.9444 44.006L20.9346 43.3693C20.9248 42.9903 20.9112 42.4414 20.9112 41.0059ZM42.2452 10.7539C42.3086 10.5039 42.3712 10.2265 42.4258 9.91404C42.7493 7.68521 42.4673 5.41042 41.6094 3.32804C41.5012 3.05656 41.3348 2.81205 41.1221 2.61164C40.9094 2.41123 40.6554 2.25978 40.378 2.1679C39.666 1.92766 37.0372 1.455 32.0098 4.6679C27.8309 3.68449 23.4807 3.68449 19.3018 4.6679C14.295 1.50206 11.6797 1.93166 10.9746 2.15822C10.6904 2.24638 10.4294 2.39703 10.2109 2.59913C9.99244 2.80123 9.82194 3.04967 9.71193 3.32622C8.83653 5.44858 8.55761 7.76977 8.90529 10.0391C8.95413 10.295 9.00685 10.5313 9.06155 10.7481C7.40469 12.955 6.52217 15.6468 6.55081 18.4063C6.54541 19.0219 6.57378 19.6375 6.63577 20.25C7.30377 29.4551 13.3038 32.2188 17.4844 33.168C17.3975 33.418 17.3184 33.6856 17.2481 33.9688C17.1228 34.4834 17.2066 35.0267 17.4813 35.4795C17.7559 35.9324 18.199 36.2578 18.7132 36.3845C19.2275 36.5112 19.771 36.4288 20.2246 36.1554C20.6781 35.8819 21.0048 35.4397 21.1328 34.9258C21.2601 34.2594 21.5863 33.6473 22.0684 33.17C22.3599 32.9147 22.571 32.5803 22.6759 32.2073C22.7808 31.8344 22.7751 31.439 22.6594 31.0692C22.5438 30.6994 22.3231 30.3712 22.0244 30.1245C21.7256 29.8779 21.3616 29.7233 20.9766 29.6797C14.0684 28.8907 11.0694 26.0762 10.6182 19.8829C10.5682 19.3923 10.5457 18.8994 10.5508 18.4063C10.5187 16.4396 11.1685 14.5225 12.3897 12.9805C12.5124 12.8198 12.6431 12.6653 12.7813 12.5176C13.0261 12.2436 13.1908 11.9075 13.2571 11.546C13.3234 11.1846 13.2889 10.8119 13.1573 10.4688C13.0223 10.1079 12.9185 9.73606 12.8467 9.35746C12.6838 8.28089 12.7372 7.18264 13.0039 6.12698C14.7422 6.61792 16.3782 7.41706 17.8339 8.48634C18.0747 8.64669 18.3471 8.75339 18.6327 8.79923C18.9183 8.84506 19.2104 8.82894 19.4892 8.75198C23.5314 7.65498 27.7931 7.65567 31.8349 8.75398C32.1152 8.83086 32.4089 8.84605 32.6957 8.79851C32.9825 8.75097 33.2555 8.64183 33.496 8.4786C34.945 7.40487 36.5741 6.59859 38.3066 6.09774C38.5721 7.12805 38.6315 8.20065 38.4814 9.25398C38.409 9.66905 38.2958 10.076 38.1435 10.4688C38.0119 10.8119 37.9773 11.1846 38.0437 11.5461C38.11 11.9075 38.2746 12.2437 38.5195 12.5177C38.6738 12.6915 38.8281 12.879 38.9668 13.0548C40.1793 14.5706 40.8181 16.4657 40.7705 18.4063C40.7742 18.9255 40.7491 19.4445 40.6953 19.961C40.2549 26.0723 37.2442 28.8887 30.3037 29.6797C29.9186 29.7236 29.5546 29.8784 29.2559 30.1253C28.9571 30.3722 28.7366 30.7006 28.621 31.0706C28.5055 31.4405 28.4999 31.8361 28.605 32.2091C28.71 32.5822 28.9213 32.9167 29.2129 33.1719C29.7102 33.6619 30.0371 34.2986 30.1455 34.9883C30.2807 35.5237 30.3428 36.0749 30.3301 36.627V41.295C30.3105 42.5899 30.3105 43.5606 30.3105 44.0059C30.3105 44.5363 30.5212 45.045 30.8963 45.4201C31.2714 45.7952 31.7801 46.0059 32.3105 46.0059C32.841 46.0059 33.3497 45.7952 33.7247 45.4201C34.0998 45.045 34.3105 44.5363 34.3105 44.0059C34.3105 43.5723 34.3105 42.6211 34.3301 41.3262V36.627C34.3462 35.7426 34.242 34.8602 34.0205 34.0039C33.9572 33.7228 33.8796 33.4451 33.7881 33.1719C36.8306 32.6665 39.595 31.0978 41.5893 28.7451C43.5836 26.3925 44.6784 23.4085 44.6787 20.3243C44.7446 19.6871 44.7753 19.0468 44.7705 18.4063C44.8149 15.6438 43.925 12.9473 42.2451 10.7539L42.2452 10.7539Z" fill="white"/>
</svg>
