<svg width="49" height="48" viewBox="0 0 49 48" fill="none" xmlns="http://www.w3.org/2000/svg">
<path d="M35.4505 10.92C34.9758 10.92 34.5118 11.0608 34.1171 11.3245C33.7225 11.5882 33.4148 11.963 33.2332 12.4016C33.0515 12.8401 33.004 13.3227 33.0966 13.7882C33.1892 14.2538 33.4178 14.6814 33.7535 15.0171C34.0891 15.3527 34.5167 15.5813 34.9823 15.6739C35.4478 15.7665 35.9304 15.719 36.3689 15.5373C36.8075 15.3557 37.1823 15.048 37.446 14.6534C37.7097 14.2587 37.8505 13.7947 37.8505 13.32C37.8505 12.6835 37.5977 12.073 37.1476 11.6229C36.6975 11.1729 36.087 10.92 35.4505 10.92ZM44.6505 15.76C44.6116 14.1006 44.3008 12.4588 43.7305 10.9C43.222 9.56627 42.4305 8.35856 41.4105 7.36C40.4202 6.33485 39.2096 5.54835 37.8705 5.06C36.3158 4.47232 34.6722 4.15442 33.0105 4.12C30.8905 4 30.2105 4 24.7705 4C19.3305 4 18.6505 4 16.5305 4.12C14.8688 4.15442 13.2252 4.47232 11.6705 5.06C10.3339 5.5533 9.12438 6.33912 8.13051 7.36C7.10536 8.35036 6.31886 9.56088 5.83051 10.9C5.24283 12.4547 4.92493 14.0983 4.89051 15.76C4.77051 17.88 4.77051 18.56 4.77051 24C4.77051 29.44 4.77051 30.12 4.89051 32.24C4.92493 33.9017 5.24283 35.5453 5.83051 37.1C6.31886 38.4391 7.10536 39.6496 8.13051 40.64C9.12438 41.6609 10.3339 42.4467 11.6705 42.94C13.2252 43.5277 14.8688 43.8456 16.5305 43.88C18.6505 44 19.3305 44 24.7705 44C30.2105 44 30.8905 44 33.0105 43.88C34.6722 43.8456 36.3158 43.5277 37.8705 42.94C39.2096 42.4516 40.4202 41.6651 41.4105 40.64C42.435 39.6452 43.2272 38.4364 43.7305 37.1C44.3008 35.5412 44.6116 33.8994 44.6505 32.24C44.6505 30.12 44.7705 29.44 44.7705 24C44.7705 18.56 44.7705 17.88 44.6505 15.76ZM41.0505 32C41.0359 33.2695 40.806 34.5274 40.3705 35.72C40.0512 36.5904 39.5383 37.3768 38.8705 38.02C38.2218 38.681 37.437 39.1929 36.5705 39.52C35.3779 39.9555 34.1201 40.1854 32.8505 40.2C30.8505 40.3 30.1105 40.32 24.8505 40.32C19.5905 40.32 18.8505 40.32 16.8505 40.2C15.5323 40.2247 14.2197 40.0217 12.9705 39.6C12.1421 39.2562 11.3932 38.7456 10.7705 38.1C10.1067 37.4575 9.60019 36.6704 9.29051 35.8C8.80222 34.5903 8.53139 33.3039 8.49051 32C8.49051 30 8.37051 29.26 8.37051 24C8.37051 18.74 8.37051 18 8.49051 16C8.49947 14.7021 8.73641 13.4159 9.19051 12.2C9.5426 11.3558 10.083 10.6033 10.7705 10C11.3781 9.31234 12.1291 8.76619 12.9705 8.4C14.1896 7.96009 15.4745 7.73016 16.7705 7.72C18.7705 7.72 19.5105 7.6 24.7705 7.6C30.0305 7.6 30.7705 7.6 32.7705 7.72C34.0401 7.73456 35.2979 7.96449 36.4905 8.4C37.3994 8.7373 38.2151 9.28569 38.8705 10C39.5259 10.6144 40.038 11.3655 40.3705 12.2C40.815 13.4179 41.0451 14.7036 41.0505 16C41.1505 18 41.1705 18.74 41.1705 24C41.1705 29.26 41.1505 30 41.0505 32ZM24.7705 13.74C22.7421 13.744 20.7604 14.3491 19.0758 15.4788C17.3912 16.6086 16.0793 18.2124 15.3058 20.0875C14.5323 21.9626 14.332 24.0249 14.7301 26.0139C15.1282 28.0028 16.107 29.8291 17.5427 31.262C18.9783 32.6948 20.8065 33.67 22.7962 34.0643C24.7859 34.4586 26.8478 34.2542 28.7214 33.4771C30.5951 32.6999 32.1963 31.3849 33.3228 29.6981C34.4493 28.0113 35.0505 26.0284 35.0505 24C35.0532 22.6502 34.7889 21.3132 34.273 20.0659C33.7571 18.8186 32.9996 17.6856 32.0442 16.7321C31.0889 15.7786 29.9544 15.0234 28.7061 14.5099C27.4578 13.9964 26.1203 13.7347 24.7705 13.74ZM24.7705 30.66C23.4533 30.66 22.1656 30.2694 21.0704 29.5376C19.9752 28.8058 19.1215 27.7656 18.6175 26.5487C18.1134 25.3317 17.9815 23.9926 18.2385 22.7007C18.4955 21.4088 19.1298 20.2221 20.0612 19.2907C20.9926 18.3593 22.1793 17.7249 23.4712 17.468C24.7631 17.211 26.1022 17.3429 27.3192 17.847C28.5361 18.351 29.5763 19.2047 30.3081 20.2999C31.0399 21.3951 31.4305 22.6828 31.4305 24C31.4305 24.8746 31.2582 25.7406 30.9235 26.5487C30.5889 27.3567 30.0983 28.0909 29.4798 28.7093C28.8614 29.3278 28.1272 29.8183 27.3192 30.153C26.5112 30.4877 25.6451 30.66 24.7705 30.66Z" fill="white"/>
</svg>
