<svg width="24" height="121" viewBox="0 0 24 121" fill="none" xmlns="http://www.w3.org/2000/svg">
<rect x="24" y="27.75" width="1.5" height="12.75" transform="rotate(90 24 27.75)" fill="black"/>
<rect x="24" y="45.75" width="1.5" height="24" transform="rotate(90 24 45.75)" fill="black"/>
<rect x="11.25" y="32.25" width="0.75" height="12.75" fill="black"/>
<rect x="24" y="30" width="1.5" height="12.75" transform="rotate(90 24 30)" fill="black"/>
<rect x="24" y="48" width="1.5" height="24" transform="rotate(90 24 48)" fill="black"/>
<rect x="24" y="58.5" width="1.5" height="24" transform="rotate(90 24 58.5)" fill="black"/>
<rect x="24" y="60.75" width="1.5" height="24" transform="rotate(90 24 60.75)" fill="black"/>
<rect x="24" width="1.5" height="12.75" transform="rotate(90 24 0)" fill="black"/>
<rect x="12" y="18" width="1.5" height="12" transform="rotate(90 12 18)" fill="black"/>
<rect x="11.25" y="4.5" width="0.75" height="12.75" fill="black"/>
<rect width="0.75" height="17.25" fill="black"/>
<rect x="23.25" y="4.5" width="0.75" height="17.25" fill="black"/>
<rect x="24" y="2.25" width="1.5" height="12.75" transform="rotate(90 24 2.25)" fill="black"/>
<rect x="12" y="20.25" width="1.5" height="12" transform="rotate(90 12 20.25)" fill="black"/>
<rect x="24" y="72.375" width="48.375" height="24" transform="rotate(90 24 72.375)" fill="black"/>
<path fill-rule="evenodd" clip-rule="evenodd" d="M24 114.75L24 102.75L23.25 102.75L23.25 111.843L23.2492 111.842C23.2003 114.699 20.8689 117 18 117C15.1311 117 12.7997 114.699 12.7508 111.842L12.75 111.843L12.75 105.75L12 105.75L12 108.875L1.23429e-06 118.148L1.11657e-06 120.841L12 111.75L12 114.75C12 118.064 14.6863 120.75 18 120.75C21.1878 120.75 23.7949 118.264 23.9885 115.125L24 115.125L24 114.75ZM12.75 104.625L12.75 102.75L0 102.75L-8.19592e-08 104.625L12.75 104.625Z" fill="white"/>
<path d="M2.67274e-06 98.5L2.79077e-06 95.7998L22.2992 84.4652L12.75 79.6114L12.75 87.75L12 88.1771L12 79.2302L3.78167e-06 73.1306L3.8147e-06 72.375L24 84.6541L24 86.4098L2.67274e-06 98.5Z" fill="white"/>
</svg>
